<svg aria-hidden="true" style="position:absolute;width:0;height:0" xmlns="http://www.w3.org/2000/svg" overflow="hidden">
  <defs>
    <!-- Instagram icon -->
    <symbol id="instagram" viewBox="0 0 40 40">
      <path d="M40 20C40 25.5228 37.7614 30.5228 34.1421 34.1421C30.5228 37.7614 25.5228 40 20 40C14.4772 40 9.47715 37.7614 5.85786 34.1421C2.23858 30.5228 0 25.5228 0 20C0 14.4772 2.23858 9.47715 5.85786 5.85786C9.47715 2.23858 14.4772 0 20 0C25.5228 0 30.5228 2.23858 34.1421 5.85786C37.7614 9.47715 40 14.4772 40 20Z"/>
      <path d="M27.9843 16.7039C27.9468 15.8538 27.8093 15.2693 27.6124 14.7629C27.4092 14.2253 27.0967 13.744 26.6872 13.3439C26.2871 12.9376 25.8026 12.6218 25.2713 12.4218C24.7619 12.2249 24.1805 12.0874 23.3303 12.0499C22.4738 12.0093 22.2019 11.9999 20.0296 11.9999C17.8573 11.9999 17.5854 12.0093 16.7321 12.0468C15.882 12.0842 15.2975 12.2218 14.7912 12.4187C14.2535 12.6218 13.7722 12.9344 13.3721 13.3439C12.9658 13.744 12.6501 14.2285 12.45 14.7598C12.2531 15.2693 12.1156 15.8506 12.0781 16.7007C12.0375 17.5572 12.0281 17.8291 12.0281 20.0014C12.0281 22.1737 12.0375 22.4456 12.075 23.299C12.1124 24.1491 12.25 24.7336 12.447 25.24C12.6501 25.7776 12.9658 26.2589 13.3721 26.659C13.7722 27.0653 14.2567 27.3811 14.788 27.581C15.2975 27.778 15.8788 27.9155 16.7291 27.9529C17.5823 27.9906 17.8543 27.9998 20.0266 27.9998C22.1989 27.9998 22.4708 27.9906 23.3241 27.9529C24.1742 27.9155 24.7587 27.778 25.265 27.581C26.3403 27.1653 27.1904 26.3152 27.6062 25.24C27.803 24.7305 27.9406 24.1491 27.9781 23.299C28.0156 22.4456 28.025 22.1737 28.025 20.0014C28.025 17.8291 28.0218 17.5572 27.9843 16.7039ZM26.5435 23.2364C26.509 24.0179 26.3778 24.4398 26.2684 24.7211C25.9995 25.4181 25.4463 25.9714 24.7493 26.2402C24.468 26.3496 24.043 26.4809 23.2646 26.5152C22.4207 26.5528 22.1676 26.562 20.0328 26.562C17.898 26.562 17.6417 26.5528 16.8009 26.5152C16.0195 26.4809 15.5975 26.3496 15.3162 26.2402C14.9693 26.112 14.6536 25.9088 14.3973 25.6432C14.1316 25.3837 13.9285 25.0712 13.8003 24.7243C13.6909 24.443 13.5596 24.0179 13.5253 23.2396C13.4877 22.3957 13.4784 22.1425 13.4784 20.0077C13.4784 17.8729 13.4877 17.6166 13.5253 16.7758C13.5596 15.9944 13.6909 15.5725 13.8003 15.2912C13.9285 14.9442 14.1316 14.6286 14.4005 14.3722C14.6598 14.1065 14.9724 13.9033 15.3194 13.7752C15.6007 13.6659 16.0258 13.5346 16.804 13.5002C17.6479 13.4627 17.9012 13.4533 20.0359 13.4533C22.1738 13.4533 22.4269 13.4627 23.2678 13.5002C24.0492 13.5346 24.4712 13.6659 24.7525 13.7752C25.0993 13.9033 25.4151 14.1065 25.6714 14.3722C25.937 14.6316 26.1402 14.9442 26.2684 15.2912C26.3778 15.5725 26.509 15.9975 26.5435 16.7758C26.581 17.6198 26.5904 17.8729 26.5904 20.0077C26.5904 22.1425 26.581 22.3925 26.5435 23.2364Z" fill="#F4F4FD"/>
      <path d="M20.0297 15.8912C17.7606 15.8912 15.9195 17.7322 15.9195 20.0014C15.9195 22.2707 17.7606 24.1116 20.0297 24.1116C22.2989 24.1116 24.1398 22.2707 24.1398 20.0014C24.1398 17.7322 22.2989 15.8912 20.0297 15.8912ZM20.0297 22.6676C18.5576 22.6676 17.3635 21.4736 17.3635 20.0014C17.3635 18.5292 18.5576 17.3352 20.0297 17.3352C21.5019 17.3352 22.6958 18.5292 22.6958 20.0014C22.6958 21.4736 21.5019 22.6676 20.0297 22.6676Z" fill="#F4F4FD"/>
      <path d="M25.262 15.7287C25.262 16.2586 24.8324 16.6882 24.3024 16.6882C23.7725 16.6882 23.3428 16.2586 23.3428 15.7287C23.3428 15.1987 23.7725 14.7692 24.3024 14.7692C24.8324 14.7692 25.262 15.1987 25.262 15.7287Z" fill="#F4F4FD"/>
    </symbol>
    <!-- Facebook icon -->
    <symbol id="facebook" viewBox="0 0 40 40">
      <path d="M40 20C40 25.5228 37.7614 30.5228 34.1421 34.1421C30.5228 37.7614 25.5228 40 20 40C14.4772 40 9.47715 37.7614 5.85786 34.1421C2.23858 30.5228 0 25.5228 0 20C0 14.4772 2.23858 9.47715 5.85786 5.85786C9.47715 2.23858 14.4772 0 20 0C25.5228 0 30.5228 2.23858 34.1421 5.85786C37.7614 9.47715 40 14.4772 40 20Z"/>
      <path d="M22.6647 14.6565H24.1254V12.1125C23.8734 12.0779 23.0067 11.9999 21.9974 11.9999C19.8914 11.9999 18.4487 13.3245 18.4487 15.7592V17.9999H16.1247V20.8439H18.4487V27.9999H21.298V20.8445H23.528L23.882 18.0005H21.2974V16.0412C21.298 15.2192 21.5194 14.6565 22.6647 14.6565Z" fill="#F4F4FD"/>
    </symbol>
    <!-- Twitter icon -->
    <symbol id="twitter" viewBox="0 0 40 40">
      <path d="M40 20C40 25.5228 37.7614 30.5228 34.1421 34.1421C30.5228 37.7614 25.5228 40 20 40C14.4772 40 9.47715 37.7614 5.85786 34.1421C2.23858 30.5228 0 25.5228 0 20C0 14.4772 2.23858 9.47715 5.85786 5.85786C9.47715 2.23858 14.4772 0 20 0C25.5228 0 30.5228 2.23858 34.1421 5.85786C37.7614 9.47715 40 14.4772 40 20Z"/>
      <path d="M28 15.0389C27.405 15.2999 26.771 15.4729 26.11 15.5569C26.79 15.1509 27.309 14.5129 27.553 13.7439C26.919 14.1219 26.219 14.3889 25.473 14.5379C24.871 13.8969 24.013 13.4999 23.077 13.4999C21.261 13.4999 19.799 14.9739 19.799 16.7809C19.799 17.0409 19.821 17.2909 19.875 17.5289C17.148 17.3959 14.735 16.0889 13.114 14.0979C12.831 14.5889 12.665 15.1509 12.665 15.7559C12.665 16.8919 13.25 17.8989 14.122 18.4819C13.595 18.4719 13.078 18.3189 12.64 18.0779C12.64 18.0879 12.64 18.1009 12.64 18.1139C12.64 19.7079 13.777 21.0319 15.268 21.3369C15.001 21.4099 14.71 21.4449 14.408 21.4449C14.198 21.4449 13.986 21.4329 13.787 21.3889C14.212 22.6879 15.418 23.6429 16.852 23.6739C15.736 24.5469 14.319 25.0729 12.785 25.0729C12.516 25.0729 12.258 25.0609 12 25.0279C13.453 25.9649 15.175 26.4999 17.032 26.4999C23.068 26.4999 26.368 21.4999 26.368 17.1659C26.368 17.0209 26.363 16.8809 26.356 16.7419C27.007 16.2799 27.554 15.7029 28 15.0389Z" fill="#F4F4FD"/>
    </symbol>
    <!-- LinkedIn icon -->
    <symbol id="linkedin" viewBox="0 0 40 40">
      <path d="M40 20C40 25.5228 37.7614 30.5228 34.1421 34.1421C30.5228 37.7614 25.5228 40 20 40C14.4772 40 9.47715 37.7614 5.85786 34.1421C2.23858 30.5228 0 25.5228 0 20C0 14.4772 2.23858 9.47715 5.85786 5.85786C9.47715 2.23858 14.4772 0 20 0C25.5228 0 30.5228 2.23858 34.1421 5.85786C37.7614 9.47715 40 14.4772 40 20Z"/>
      <path d="M27.9961 27.9999V27.9992H28.0001V22.1312C28.0001 19.2605 27.3821 17.0492 24.0261 17.0492C22.4128 17.0492 21.3301 17.9345 20.8881 18.7739H20.8414V17.3172H17.6594V27.9992H20.9728V22.7099C20.9728 21.3172 21.2368 19.9705 22.9614 19.9705C24.6608 19.9705 24.6861 21.5599 24.6861 22.7992V27.9999H27.9961Z" fill="#F4F4FD"/>
      <path d="M12.264 17.3179H15.5814V27.9999H12.264V17.3179Z" fill="#F4F4FD"/>
      <path d="M13.9214 11.9999C12.8607 11.9999 12.0001 12.8605 12.0001 13.9212C12.0001 14.9819 12.8607 15.8605 13.9214 15.8605C14.9821 15.8605 15.8427 14.9819 15.8427 13.9212C15.8421 12.8605 14.9814 11.9999 13.9214 11.9999V11.9999Z" fill="#F4F4FD"/>
    </symbol>
    <!-- Close icon -->
    <symbol id="icon-close" viewBox="0 0 24 24">
      <circle r="11" cx="12" cy="12" stroke="#8E8F99" stroke-width="2" />
      <line x1="7" y1="7" x2="17" y2="17" stroke-width="2" />
      <line x1="7" y1="17" x2="17" y2="7" stroke-width="2" />
    </symbol>
    <!-- Name icon -->
    <symbol id="icon-name" viewBox="0 0 12 12">
      <path fill="inherit" d="M6 6C7.6575 6 9 4.6575 9 3C9 1.3425 7.6575 0 6 0C4.3425 0 3 1.3425 3 3C3 4.6575 4.3425 6 6 6ZM6 7.5C3.9975 7.5 0 8.505 0 10.5V11.25C0 11.6625 0.3375 12 0.75 12H11.25C11.6625 12 12 11.6625 12 11.25V10.5C12 8.505 8.0025 7.5 6 7.5Z"/>
    </symbol>
    <!-- Phone icon -->
    <symbol id="icon-phone" viewBox="0 0 12 12">
      <path fill="inherit" d="M11.7263 8.86511L9.88811 8.65525C9.44667 8.60459 9.01246 8.75656 8.70128 9.06775L7.36971 10.3993C5.3217 9.35722 3.64276 7.68551 2.60067 5.63025L3.93947 4.29144C4.25065 3.98025 4.40263 3.54605 4.35197 3.1046L4.1421 1.28092C4.05526 0.549999 3.44013 0 2.70198 0H1.45002C0.632259 0 -0.0479991 0.680262 0.00265842 1.49802C0.386208 7.67827 5.32894 12.6138 11.5019 12.9973C12.3197 13.048 12.9999 12.3677 12.9999 11.55V10.298C13.0072 9.56709 12.4572 8.95196 11.7263 8.86511Z"/>
    </symbol>
    <!-- Email icon -->
    <symbol id="icon-email" viewBox="0 0 16 12">
      <path fill="inherit" d="M14 0H2C1.175 0 0.5075 0.675 0.5075 1.5L0.5 10.5C0.5 11.325 1.175 12 2 12H14C14.825 12 15.5 11.325 15.5 10.5V1.5C15.5 0.675 14.825 0 14 0ZM13.7 3.1875L8.3975 6.5025C8.1575 6.6525 7.8425 6.6525 7.6025 6.5025L2.3 3.1875C2.1125 3.0675 2 2.865 2 2.6475C2 2.145 2.5475 1.845 2.975 2.1075L8 5.25L13.025 2.1075C13.4525 1.845 14 2.145 14 2.6475C14 2.865 13.8875 3.0675 13.7 3.1875Z"/>
    </symbol>
    <!-- Send icon -->
    <symbol id="icon-send" viewBox="0 0 24 24">
      <path d="M24 2L0 13.25L7.66994 15.6172L19.5 6.375L10.5017 16.4913L10.509 16.4936L10.5 16.4913V22L14.8013 17.8183L20.2501 19.5L24 2Z" fill="white"/>
    </symbol>
  </defs>
</svg>